<svg width="173" height="40" viewBox="0 0 173 40" fill="none" xmlns="http://www.w3.org/2000/svg">
<path d="M65.5119 14C67.1439 14 68.4559 14.504 69.4479 15.512C70.4559 16.504 70.9599 17.896 70.9599 19.688V27.488H67.5999V20.144C67.5999 19.104 67.3359 18.312 66.8079 17.768C66.2799 17.208 65.5599 16.928 64.6479 16.928C63.7359 16.928 63.0079 17.208 62.4639 17.768C61.9359 18.312 61.6719 19.104 61.6719 20.144V27.488H58.312V20.144C58.312 19.104 58.048 18.312 57.52 17.768C56.992 17.208 56.272 16.928 55.36 16.928C54.432 16.928 53.696 17.208 53.152 17.768C52.624 18.312 52.36 19.104 52.36 20.144V27.488H49V14.192H52.36V15.8C52.792 15.24 53.344 14.8 54.016 14.48C54.704 14.16 55.456 14 56.272 14C57.312 14 58.24 14.224 59.056 14.672C59.872 15.104 60.5039 15.728 60.9519 16.544C61.3839 15.776 62.0079 15.16 62.8239 14.696C63.6559 14.232 64.5519 14 65.5119 14Z" fill="white"/>
<path d="M106.512 14C108.144 14 109.456 14.504 110.448 15.512C111.456 16.504 111.96 17.896 111.96 19.688V27.488H108.6V20.144C108.6 19.104 108.336 18.312 107.808 17.768C107.28 17.208 106.56 16.928 105.648 16.928C104.736 16.928 104.008 17.208 103.464 17.768C102.936 18.312 102.672 19.104 102.672 20.144V27.488H99.312V20.144C99.312 19.104 99.048 18.312 98.52 17.768C97.992 17.208 97.272 16.928 96.36 16.928C95.432 16.928 94.696 17.208 94.152 17.768C93.624 18.312 93.36 19.104 93.36 20.144V27.488H90V14.192H93.36V15.8C93.792 15.24 94.344 14.8 95.016 14.48C95.704 14.16 96.456 14 97.272 14C98.312 14 99.24 14.224 100.056 14.672C100.872 15.104 101.504 15.728 101.952 16.544C102.384 15.776 103.008 15.16 103.824 14.696C104.656 14.232 105.552 14 106.512 14Z" fill="white"/>
<path d="M119.997 28.2163C118.717 28.2163 117.565 27.9363 116.541 27.3763C115.517 26.8003 114.709 25.9923 114.117 24.9523C113.541 23.9123 113.253 22.7123 113.253 21.3523C113.253 19.9923 113.549 18.7923 114.141 17.7523C114.749 16.7123 115.573 15.9123 116.613 15.3523C117.653 14.7763 118.813 14.4883 120.093 14.4883C121.373 14.4883 122.533 14.7763 123.573 15.3523C124.613 15.9123 125.429 16.7123 126.021 17.7523C126.629 18.7923 126.933 19.9923 126.933 21.3523C126.933 22.7123 126.621 23.9123 125.997 24.9523C125.389 25.9923 124.557 26.8003 123.501 27.3763C122.461 27.9363 121.293 28.2163 119.997 28.2163ZM119.997 25.2883C120.605 25.2883 121.173 25.1443 121.701 24.8563C122.245 24.5523 122.677 24.1043 122.997 23.5123C123.317 22.9203 123.477 22.2003 123.477 21.3523C123.477 20.0883 123.141 19.1203 122.469 18.4483C121.813 17.7603 121.005 17.4163 120.045 17.4163C119.085 17.4163 118.277 17.7603 117.621 18.4483C116.981 19.1203 116.661 20.0883 116.661 21.3523C116.661 22.6163 116.973 23.5923 117.597 24.2803C118.237 24.9523 119.037 25.2883 119.997 25.2883Z" fill="white"/>
<path d="M136.766 14.5117C138.35 14.5117 139.63 15.0157 140.606 16.0237C141.582 17.0157 142.07 18.4077 142.07 20.1997V27.9997H138.71V20.6557C138.71 19.5997 138.446 18.7917 137.918 18.2317C137.39 17.6557 136.67 17.3677 135.758 17.3677C134.83 17.3677 134.094 17.6557 133.55 18.2317C133.022 18.7917 132.758 19.5997 132.758 20.6557V27.9997H129.398V14.7037H132.758V16.3597C133.206 15.7837 133.774 15.3357 134.462 15.0157C135.166 14.6797 135.934 14.5117 136.766 14.5117Z" fill="white"/>
<path d="M157.625 21.0643C157.625 21.5443 157.593 21.9763 157.529 22.3603H147.809C147.889 23.3203 148.225 24.0723 148.817 24.6163C149.409 25.1603 150.137 25.4323 151.001 25.4323C152.249 25.4323 153.137 24.8963 153.665 23.8243H157.289C156.905 25.1043 156.169 26.1603 155.081 26.9923C153.993 27.8083 152.657 28.2163 151.073 28.2163C149.793 28.2163 148.641 27.9363 147.617 27.3763C146.609 26.8003 145.817 25.9923 145.241 24.9523C144.681 23.9123 144.401 22.7123 144.401 21.3523C144.401 19.9763 144.681 18.7683 145.241 17.7283C145.801 16.6883 146.585 15.8883 147.593 15.3283C148.601 14.7683 149.761 14.4883 151.073 14.4883C152.337 14.4883 153.465 14.7603 154.457 15.3043C155.465 15.8483 156.241 16.6243 156.785 17.6323C157.345 18.6243 157.625 19.7683 157.625 21.0643ZM154.145 20.1043C154.129 19.2403 153.817 18.5523 153.209 18.0403C152.601 17.5123 151.857 17.2483 150.977 17.2483C150.145 17.2483 149.441 17.5043 148.865 18.0163C148.305 18.5123 147.961 19.2083 147.833 20.1043H154.145Z" fill="white"/>
<path d="M172.798 14.7041L164.566 34.2881H160.99L163.87 27.6641L158.542 14.7041H162.31L165.742 23.9921L169.222 14.7041H172.798Z" fill="white"/>
<path d="M85.256 14L77.024 33.584H73.448L76.328 26.96L71 14H74.768L78.2 23.288L81.68 14H85.256Z" fill="white"/>
<path d="M34.1422 5.85781C30.3647 2.08031 25.3422 0 20 0C14.6578 0 9.63531 2.08031 5.85781 5.85781C2.08031 9.63531 0 14.6578 0 20C0 25.3422 2.08039 30.3646 5.85781 34.1422C9.63523 37.9198 14.6578 40 20 40C25.3422 40 30.3647 37.9197 34.1422 34.1422C37.9197 30.3647 40 25.3422 40 20C40 14.6578 37.9196 9.63539 34.1422 5.85781Z" fill="#04D361"/>
<path d="M20.5715 8V33.1429" stroke="white" stroke-width="2" stroke-linecap="round" stroke-linejoin="round"/>
<path d="M26.2858 12.5713H17.7144C16.6535 12.5713 15.6361 12.9928 14.886 13.7429C14.1358 14.493 13.7144 15.5105 13.7144 16.5713C13.7144 17.6322 14.1358 18.6496 14.886 19.3998C15.6361 20.1499 16.6535 20.5713 17.7144 20.5713H23.4287C24.4895 20.5713 25.507 20.9928 26.2571 21.7429C27.0073 22.4931 27.4287 23.5105 27.4287 24.5713C27.4287 25.6322 27.0073 26.6496 26.2571 27.3998C25.507 28.1499 24.4895 28.5713 23.4287 28.5713H13.7144" stroke="white" stroke-width="2" stroke-linecap="round" stroke-linejoin="round"/>
</svg>
